<svg width="43" height="55" viewBox="0 0 43 55" fill="none" xmlns="http://www.w3.org/2000/svg">
<path d="M42.7172 31.7741C42.7172 31.149 42.4084 30.55 41.9195 30.1854L3.34532 0.441772C2.54759 -0.183312 1.3896 -0.157266 0.617598 0.598044C0.205866 1.01477 0 1.58776 0 2.16075V53.7823C0 54.199 0.283066 54.5897 0.694798 54.6157C1.158 54.6678 1.544 54.3032 1.544 53.8344L5.17239 12.0579L27.6375 29.8728L8.80078 45.526C6.76785 47.0887 7.51411 50.7089 10.705 49.4848C10.7222 49.4848 21.0412 44.2324 41.6622 33.7275C41.6622 33.7275 41.7737 33.6233 41.9967 33.415C42.4856 32.9982 42.743 32.3992 42.7172 31.7741Z" fill="white"/>
</svg>
